<svg width="91" height="148" viewBox="0 0 91 148" fill="none" xmlns="http://www.w3.org/2000/svg">
<g clip-path="url(#clip0_243_13)">
<g clip-path="url(#clip1_243_13)">
<path d="M89.8924 148.073C90.2312 147.923 91.2378 142.211 88.8491 132.734C86.4603 123.257 84.4702 116.72 82.8788 113.122L44.5 23.5C53.5 17.5 63.7575 10 61.493 4.05354C61.1012 3.02479 60.3902 2.31122 59.3599 1.91285C58.3296 1.51447 57.2853 1.54933 56.2271 2.01741L28.5 9L4.47793 24.9065C3.41966 25.3746 2.69134 26.1238 2.29297 27.1541C1.89459 28.1844 1.9442 29.1905 2.44179 30.1724C4 34 11.5 35.5 30.004 29.6832L50.25 77.5425L68.7509 119.37C70.3424 122.969 73.8405 128.839 79.2453 136.982C84.6501 145.125 89.5536 148.223 89.8924 148.073Z" fill="#DFE8F2"/>
<path d="M44.3192 23.5753C44.783 24.624 46.0124 22.8264 44.3192 23.5753C45.9106 27.1734 41.9304 14.0982 44.3192 23.5753C57.4246 15.9476 63.2072 8.45218 61.6204 4.28548C61.2287 3.25672 60.5812 2.56775 59.551 2.16938C58.5207 1.771 57.519 1.77873 56.2334 1.75595C45.872 1.57235 29.0625 9.07181 29.0625 9.07181C29.0625 9.07181 13.8004 14.8175 4.32182 24.7169C3.47523 25.6011 2.81879 26.3557 2.42041 27.386C2.02204 28.4163 2.07165 29.4224 2.56924 30.4044C4.28836 33.7969 10.6192 35.4108 30.1314 29.9151C24.7266 21.7721 31.7229 33.5132 30.1314 29.9151C33.7419 28.8982 40.3928 25.8606 44.3192 23.5753Z" fill="#08387F" fill-opacity="0.2"/>
</g>
</g>
<defs>
<clipPath id="clip0_243_13">
<rect width="148" height="91" fill="white" transform="translate(0 148) rotate(-90)"/>
</clipPath>
<clipPath id="clip1_243_13">
<rect width="125.348" height="125.348" fill="white" transform="translate(89.9124 148.118) rotate(-158.86)"/>
</clipPath>
</defs>
</svg>
